<svg width="73" height="55" viewBox="0 0 73 55" fill="none" xmlns="http://www.w3.org/2000/svg">
<path d="M39 25.4607V54H45.4615H46.4062V36.729V28.0936L46.842 25.6942C47.5335 21.887 50.3595 18.8204 54.0977 17.8207L57.0834 17.0224C57.935 16.7946 58.813 16.6805 59.6946 16.683L67.987 16.7061H72V11.0269L59.7578 11.0027C58.8475 11.0009 57.954 11.2477 57.1737 11.7164L41.4257 21.1743C39.9207 22.0782 39 23.7051 39 25.4607Z" fill="#fff" stroke="#fff"/>
<path d="M34 25.4607V54H27.5385H26.5938V36.729V28.0936L26.158 25.6942C25.4665 21.887 22.6405 18.8204 18.9023 17.8207L15.9166 17.0224C15.065 16.7946 14.187 16.6805 13.3054 16.683L5.01299 16.7061H1V11.0269L13.2422 11.0027C14.1525 11.0009 15.046 11.2477 15.8263 11.7164L31.5743 21.1743C33.0793 22.0782 34 23.7051 34 25.4607Z" fill="#fff" stroke="#fff"/>
<path d="M1 6.57143V7H72V6.14286V1H71.3173H1V5.28571V6.57143Z" fill="#fff" stroke="#fff"/>
</svg>
